# xmcd
#
# Track frame offsets:
#	150
#	14621
#	37031
#	57991
#	74229
#	87441
#	112234
#	128199
#	150216
#	169065
#	191120
#	203548
#
# Disc length: 2941 seconds
#
# Revision: 1
# Processed by: cddbd v1.5.1PL0 Copyright (c) Steve Scherf et al.
# Submitted via: EasyCDDAExtractor 7.0.6.1
#
DISCID=ae0b7b0c
DTITLE=Jolie Holland
DYEAR=1900
DGENRE=
TTITLE0=Sascha
TTITLE1=Black Stars
TTITLE2=Old Fashioned Morphine
TTITLE3=Amen
TTITLE4=Mad Tom of Bedlam
TTITLE5=Poor Girl's Blues
TTITLE6=Goodbye California
TTITLE7=Do You?
TTITLE8=Darlin Ukelele
TTITLE9=Damn Shame
TTITLE10=Tiny Idyll/Lil Missy
TTITLE11=Faded Coat of Blue
EXTD=
EXTT0=
EXTT1=
EXTT2=
EXTT3=
EXTT4=
EXTT5=
EXTT6=
EXTT7=
EXTT8=
EXTT9=
EXTT10=
EXTT11=
PLAYORDER=
